<svg xmlns="http://www.w3.org/2000/svg" xmlns:xlink="http://www.w3.org/1999/xlink" width="4" height="18" viewBox="0 0 4 18">
  <defs>
    <clipPath id="clip-path">
      <rect width="4" height="18" fill="none"/>
    </clipPath>
    <clipPath id="clip-path-2">
      <path id="_Icon_小olor" data-name=" Icon 小olor" d="M0,16a2,2,0,1,1,2,2A2,2,0,0,1,0,16ZM0,9a2,2,0,1,1,2,2A2,2,0,0,1,0,9ZM0,2A2,2,0,1,1,2,4,2,2,0,0,1,0,2Z" transform="translate(10 3)" fill="#0d1c2e"/>
    </clipPath>
  </defs>
  <g id="more-vertical" clip-path="url(#clip-path)">
    <path id="_Icon_小olor-2" data-name=" Icon 小olor" d="M0,16a2,2,0,1,1,2,2A2,2,0,0,1,0,16ZM0,9a2,2,0,1,1,2,2A2,2,0,0,1,0,9ZM0,2A2,2,0,1,1,2,4,2,2,0,0,1,0,2Z" fill="#0d1c2e"/>
  </g>
</svg>
