<svg xmlns="http://www.w3.org/2000/svg" xmlns:xlink="http://www.w3.org/1999/xlink" width="23" height="16" viewBox="0 0 23 16">
  <defs>
    <clipPath id="clip-path">
      <rect width="23" height="16" fill="none"/>
    </clipPath>
    <clipPath id="clip-path-2">
      <path id="_Icon_小olor" data-name=" Icon 小olor" d="M1.211,16A1.242,1.242,0,0,1,0,14.735V14.6a1.243,1.243,0,0,1,1.211-1.266H21.788A1.244,1.244,0,0,1,23,14.6v.136A1.242,1.242,0,0,1,21.788,16Zm0-6.666A1.243,1.243,0,0,1,0,8.068V7.932A1.242,1.242,0,0,1,1.211,6.667H21.788A1.242,1.242,0,0,1,23,7.932v.136a1.244,1.244,0,0,1-1.212,1.266Zm0-6.667A1.242,1.242,0,0,1,0,1.4V1.265A1.242,1.242,0,0,1,1.211,0H21.788A1.242,1.242,0,0,1,23,1.265V1.4a1.242,1.242,0,0,1-1.212,1.265Z" fill="#0d1c2e"/>
    </clipPath>
  </defs>
  <g id="menu" opacity="0.4" clip-path="url(#clip-path)">
    <path id="_Icon_小olor-2" data-name=" Icon 小olor" d="M1.211,16A1.242,1.242,0,0,1,0,14.735V14.6a1.243,1.243,0,0,1,1.211-1.266H21.788A1.244,1.244,0,0,1,23,14.6v.136A1.242,1.242,0,0,1,21.788,16Zm0-6.666A1.243,1.243,0,0,1,0,8.068V7.932A1.242,1.242,0,0,1,1.211,6.667H21.788A1.242,1.242,0,0,1,23,7.932v.136a1.244,1.244,0,0,1-1.212,1.266Zm0-6.667A1.242,1.242,0,0,1,0,1.4V1.265A1.242,1.242,0,0,1,1.211,0H21.788A1.242,1.242,0,0,1,23,1.265V1.4a1.242,1.242,0,0,1-1.212,1.265Z" fill="#0d1c2e"/>
  </g>
</svg>
