<svg xmlns="http://www.w3.org/2000/svg" xmlns:xlink="http://www.w3.org/1999/xlink" width="18" height="18" viewBox="0 0 18 18">
  <defs>
    <clipPath id="clip-path">
      <path id="_Icon_小olor" data-name=" Icon 小olor" d="M17,18a.994.994,0,0,1-.707-.293l-3.4-3.395A7.91,7.91,0,0,1,8,16a8,8,0,1,1,8-8,7.909,7.909,0,0,1-1.688,4.9l3.395,3.4A1,1,0,0,1,17,18ZM8,2a6,6,0,1,0,6,6A6.007,6.007,0,0,0,8,2Z" transform="translate(0)" fill="#0d1c2e"/>
    </clipPath>
  </defs>
  <g id="search" opacity="0.4">
    <path id="_Icon_小olor-2" data-name=" Icon 小olor" d="M17,18a.994.994,0,0,1-.707-.293l-3.4-3.395A7.91,7.91,0,0,1,8,16a8,8,0,1,1,8-8,7.909,7.909,0,0,1-1.688,4.9l3.395,3.4A1,1,0,0,1,17,18ZM8,2a6,6,0,1,0,6,6A6.007,6.007,0,0,0,8,2Z" fill="#0d1c2e"/>
  </g>
</svg>
