<svg xmlns="http://www.w3.org/2000/svg" width="16.41" height="20.067" viewBox="0 0 16.41 20.067">
  <path id="_Icon_Сolor" data-name="🎨 Icon Сolor" d="M8.206,0a1.106,1.106,0,0,0-.772.313,1.128,1.128,0,0,0-.337.879c.009.155.009.31.009.474a17.468,17.468,0,0,1-.495,4.476c-.187.567-.362,1.167-.364,1.173A14.434,14.434,0,0,1,5.3,4.956a1.084,1.084,0,0,0-1.057-.835,1.086,1.086,0,0,0-.781.328L2.392,5.56a8.73,8.73,0,0,0,0,12.007,7.985,7.985,0,0,0,5.8,2.5H8.2a8.024,8.024,0,0,0,5.818-2.5A8.719,8.719,0,0,0,14.007,5.56L8.982.33A1.061,1.061,0,0,0,8.206,0Zm-2.2,8.915c1.594,0,2.777-1.943,3.165-5.2l3.27,3.4a6.456,6.456,0,0,1,.01,8.887,5.85,5.85,0,0,1-8.5,0,6.5,6.5,0,0,1-.141-8.748C4.529,8.628,5.4,8.915,6.011,8.915Z" fill="#0d1c2e"/>
</svg>
