<svg xmlns="http://www.w3.org/2000/svg" xmlns:xlink="http://www.w3.org/1999/xlink" width="21" height="21" viewBox="0 0 21 21">
  <defs>
    <clipPath id="clip-path">
      <rect width="21" height="21" fill="none"/>
    </clipPath>
    <clipPath id="clip-path-2">
      <path id="_Icon_小olor" data-name=" Icon 小olor" d="M10.5,21A10.5,10.5,0,1,1,21,10.5,10.512,10.512,0,0,1,10.5,21Zm0-18.9a8.4,8.4,0,1,0,8.4,8.4A8.41,8.41,0,0,0,10.5,2.1Zm3.15,12.6A1.052,1.052,0,0,1,12.6,13.65V7.35a1.05,1.05,0,0,1,2.1,0v6.3A1.052,1.052,0,0,1,13.65,14.7Zm-6.3,0A1.052,1.052,0,0,1,6.3,13.65V7.35a1.05,1.05,0,0,1,2.1,0v6.3A1.052,1.052,0,0,1,7.35,14.7Z" fill="#0d1c2e"/>
    </clipPath>
  </defs>
  <g id="pause-circle" clip-path="url(#clip-path)">
    <path id="_Icon_小olor-2" data-name=" Icon 小olor" d="M10.5,21A10.5,10.5,0,1,1,21,10.5,10.512,10.512,0,0,1,10.5,21Zm0-18.9a8.4,8.4,0,1,0,8.4,8.4A8.41,8.41,0,0,0,10.5,2.1Zm3.15,12.6A1.052,1.052,0,0,1,12.6,13.65V7.35a1.05,1.05,0,0,1,2.1,0v6.3A1.052,1.052,0,0,1,13.65,14.7Zm-6.3,0A1.052,1.052,0,0,1,6.3,13.65V7.35a1.05,1.05,0,0,1,2.1,0v6.3A1.052,1.052,0,0,1,7.35,14.7Z" transform="translate(0 0)" fill="#0d1c2e"/>
  </g>
</svg>
